<?xml version="1.0" encoding="UTF-8"?>
<svg version="1.1" xmlns="http://www.w3.org/2000/svg" width="512" height="512">
<path d="M0 0 C1.01823853 0.00215515 2.03647705 0.0043103 3.08557129 0.00653076 C17.7097884 0.05623391 32.00304638 0.37042012 46.375 3.3125 C47.37160645 3.50585938 48.36821289 3.69921875 49.39501953 3.8984375 C97.79648057 13.46213524 141.99059771 35.87987765 177.375 70.3125 C178.37877686 71.27760498 178.37877686 71.27760498 179.40283203 72.26220703 C188.33991207 80.87657599 196.74206664 89.58564609 204.10107422 99.59423828 C205.39750666 101.34285682 206.72788718 103.06078803 208.06640625 104.77734375 C215.93067241 114.9920598 222.3161092 125.94975258 228.375 137.3125 C229.03846436 138.55314209 229.03846436 138.55314209 229.71533203 139.81884766 C241.23204842 161.72199262 248.9030584 186.01309889 253.375 210.3125 C253.53581055 211.11316895 253.69662109 211.91383789 253.86230469 212.73876953 C259.3544441 240.81662453 259.10896692 274.30227935 253.375 302.3125 C253.18164062 303.30910645 252.98828125 304.30571289 252.7890625 305.33251953 C244.67028127 346.42132055 227.30084885 383.51549494 201.375 416.3125 C200.56289063 417.35019531 199.75078125 418.38789063 198.9140625 419.45703125 C192.95229974 426.78228865 186.40174298 433.48714924 179.75 440.1875 C178.86707275 441.07977295 177.98414551 441.9720459 177.07446289 442.89135742 C162.58292705 457.3125 162.58292705 457.3125 159.375 457.3125 C159.28001221 456.61390869 159.18502441 455.91531738 159.0871582 455.19555664 C157.15087428 441.20260153 155.01083349 427.67962724 150.375 414.3125 C149.99601562 413.20390625 149.61703125 412.0953125 149.2265625 410.953125 C141.92030337 390.84865356 130.80088906 373.048089 116.375 357.3125 C115.87629395 356.76851563 115.37758789 356.22453125 114.86376953 355.6640625 C99.76680149 339.42850962 80.89187912 326.73195364 60.375 318.3125 C63.4373857 315.15370586 66.56653053 312.25980634 69.97949219 309.47143555 C92.72986312 290.85596141 106.42388825 265.10407166 110.05859375 235.9609375 C112.70710637 205.42129818 103.91422606 176.32137332 84.22265625 152.734375 C67.73599083 133.84280057 47.7094671 122.23939597 23.375 116.3125 C22.45976562 116.085625 21.54453125 115.85875 20.6015625 115.625 C-6.44018397 110.04618697 -35.82680907 116.47267638 -58.93701172 131.19433594 C-83.99064549 147.79046591 -101.23734592 172.14392647 -107.59375 201.62109375 C-113.44079399 231.34005028 -107.20436133 259.52681692 -91.625 285.3125 C-89.17672437 288.88516889 -86.53233504 292.10814842 -83.625 295.3125 C-82.56345703 296.56740234 -82.56345703 296.56740234 -81.48046875 297.84765625 C-77.04801861 302.99426648 -72.40982314 307.33896492 -66.984375 311.42578125 C-64.33059139 313.54792941 -61.99012012 315.8760908 -59.625 318.3125 C-60.64078125 318.80878906 -61.6565625 319.30507813 -62.703125 319.81640625 C-80.06329584 328.35457714 -95.50023487 337.9404653 -109.625 351.3125 C-110.50929687 352.13234375 -111.39359375 352.9521875 -112.3046875 353.796875 C-141.04163984 381.31271038 -154.0702955 418.59751178 -158.625 457.3125 C-175.78342311 446.33412387 -191.34060845 429.36555315 -203.35107422 413.03076172 C-204.64750666 411.28214318 -205.97788718 409.56421197 -207.31640625 407.84765625 C-230.04216568 378.32684615 -244.43532221 342.37851684 -251.875 306.0625 C-252.10159302 304.96723999 -252.10159302 304.96723999 -252.33276367 303.84985352 C-255.36488317 288.1556851 -255.9982107 272.63266136 -255.9375 256.6875 C-255.93534485 255.66926147 -255.9331897 254.65102295 -255.93096924 253.60192871 C-255.88126609 238.9777116 -255.56707988 224.68445362 -252.625 210.3125 C-252.33496094 208.81759033 -252.33496094 208.81759033 -252.0390625 207.29248047 C-244.41040781 168.68418872 -228.69757683 132.53083121 -204.625 101.3125 C-203.66013672 100.05953125 -203.66013672 100.05953125 -202.67578125 98.78125 C-188.57295377 80.82715922 -172.21896589 63.63892592 -153.625 50.3125 C-153.08327148 49.920625 -152.54154297 49.52875 -151.98339844 49.125 C-121.06865283 26.84146078 -86.69401468 11.73961685 -49.375 4.0625 C-48.64442383 3.91127686 -47.91384766 3.76005371 -47.16113281 3.60424805 C-31.46684491 0.57387475 -15.9450952 -0.06071045 0 0 Z " fill="#000000" transform="translate(255.625,-0.3125)"/>
<path d="M0 0 C1.90265625 0.47566406 1.90265625 0.47566406 3.84375 0.9609375 C22.11149276 5.92430062 38.57287382 14.85041679 53 27 C53.54446777 27.44956055 54.08893555 27.89912109 54.64990234 28.36230469 C68.20159271 39.65747324 78.01605414 53.37848336 86 69 C86.47953125 69.9075 86.9590625 70.815 87.453125 71.75 C98.24956515 93.61620789 99.35035135 116.10603784 99 140 C58.56337285 162.19972527 16.00877443 174.4686968 -30.25 174.375 C-31.26201477 174.37445618 -32.27402954 174.37391235 -33.31671143 174.37335205 C-49.84530572 174.33261956 -65.77913999 173.42924222 -82 170 C-83.04188477 169.78037598 -84.08376953 169.56075195 -85.15722656 169.33447266 C-112.03027593 163.4728458 -137.00345361 153.34353413 -161 140 C-161.81739215 103.92575966 -155.06881745 71.12950751 -131 43 C-130.15953125 41.99710937 -129.3190625 40.99421875 -128.453125 39.9609375 C-117.37610251 27.09435865 -104.06624695 17.66129407 -89 10 C-87.56914062 9.26330078 -87.56914062 9.26330078 -86.109375 8.51171875 C-59.90536845 -4.15878142 -28.15747531 -7.15572203 0 0 Z " fill="#000000" transform="translate(287,338)"/>
<path d="M0 0 C16.56861302 14.09606615 25.84026251 33.5167233 28.3515625 54.91015625 C29.57017029 76.84509655 24.14601691 98.89128962 9.34301758 115.6628418 C7.0718957 118.14194613 4.72748636 120.53076895 2.3515625 122.91015625 C1.69414062 123.57917969 1.03671875 124.24820313 0.359375 124.9375 C-14.49039236 138.99060602 -36.24419386 145.58522943 -56.35546875 145.16015625 C-79.00467692 143.44064341 -97.6014846 134.93375114 -113.6484375 118.91015625 C-114.31746094 118.25273437 -114.98648438 117.5953125 -115.67578125 116.91796875 C-130.21204896 101.55764958 -136.43020693 79.80049023 -135.8984375 59.06640625 C-135.36351199 47.70458841 -132.65043783 37.14347498 -127.6484375 26.91015625 C-127.22949219 26.01039063 -126.81054688 25.110625 -126.37890625 24.18359375 C-117.17340491 5.77259106 -100.77008049 -7.70013901 -81.6484375 -14.90234375 C-53.06258479 -24.38935164 -23.48153794 -18.52894218 0 0 Z " fill="#000000" transform="translate(309.6484375,161.08984375)"/>
</svg>
