<?xml version="1.0" encoding="UTF-8"?>
<!DOCTYPE svg PUBLIC "-//W3C//DTD SVG 1.1//EN" "http://www.w3.org/Graphics/SVG/1.1/DTD/svg11.dtd">
<svg xmlns="http://www.w3.org/2000/svg" version="1.1" width="512px" height="512px" style="shape-rendering:geometricPrecision; text-rendering:geometricPrecision; image-rendering:optimizeQuality; fill-rule:evenodd; clip-rule:evenodd" xmlns:xlink="http://www.w3.org/1999/xlink">
<g><path style="opacity:0.987" fill="#d0d0d0" d="M 349.5,40.5 C 401.593,39.2866 439.093,61.9532 462,108.5C 477.446,147.381 472.113,183.047 446,215.5C 435,226.5 424,237.5 413,248.5C 362.833,198.333 312.667,148.167 262.5,98C 273.167,87.3333 283.833,76.6667 294.5,66C 310.627,52.6014 328.96,44.1014 349.5,40.5 Z"/></g>
<g><path style="opacity:0.992" fill="#d0d0d0" d="M 232.5,127.5 C 282.965,177.465 333.299,227.632 383.5,278C 327.139,334.694 270.473,391.028 213.5,447C 163.641,455.29 113.641,462.79 63.5,469.5C 49.8333,468.5 42.5,461.167 41.5,447.5C 48.2104,397.359 55.7104,347.359 64,297.5C 120.007,240.66 176.174,183.993 232.5,127.5 Z"/></g>
</svg>
