<?xml version="1.0" encoding="UTF-8"?>
<!DOCTYPE svg PUBLIC "-//W3C//DTD SVG 1.1//EN" "http://www.w3.org/Graphics/SVG/1.1/DTD/svg11.dtd">
<svg xmlns="http://www.w3.org/2000/svg" version="1.1" width="512px" height="512px" style="shape-rendering:geometricPrecision; text-rendering:geometricPrecision; image-rendering:optimizeQuality; fill-rule:evenodd; clip-rule:evenodd" xmlns:xlink="http://www.w3.org/1999/xlink">
<g><path style="opacity:0.99" fill="#f04438" d="M -0.5,269.5 C -0.5,242.833 -0.5,216.167 -0.5,189.5C 1.23685,164.576 3.73685,139.576 7,114.5C 14.5597,72.2843 37.393,41.451 75.5,22C 82.2268,18.8689 89.2268,16.5355 96.5,15C 160.234,2.14021 223.901,2.47355 287.5,16C 330.005,30.5054 357.505,59.3388 370,102.5C 374.054,122.987 376.054,143.654 376,164.5C 369.097,177.688 358.93,180.855 345.5,174C 343.291,172.127 341.458,169.96 340,167.5C 337.401,149.185 334.734,130.852 332,112.5C 325.646,90.4804 312.812,73.3137 293.5,61C 287.274,57.22 280.607,54.5533 273.5,53C 224.624,43.1812 175.624,42.1812 126.5,50C 155.354,60.5925 182.354,74.5925 207.5,92C 236.516,119.519 255.016,153.019 263,192.5C 268.508,236.317 271.341,280.317 271.5,324.5C 270.88,351.851 269.88,379.184 268.5,406.5C 299.489,399.352 320.323,380.686 331,350.5C 334.427,333.323 336.761,315.989 338,298.5C 341.865,283.313 351.365,278.147 366.5,283C 371.144,285.641 374.311,289.475 376,294.5C 376.312,319.985 372.978,344.985 366,369.5C 346.4,414.564 312.233,440.73 263.5,448C 259.377,466.254 250.377,481.587 236.5,494C 227.114,501.296 216.448,505.129 204.5,505.5C 154.174,498.563 108.174,480.729 66.5,452C 39.1628,428.618 20.6628,399.452 11,364.5C 8.10232,354.345 6.10232,344.011 5,333.5C 3.04399,312.023 1.21066,290.69 -0.5,269.5 Z"/></g>
<g><path style="opacity:0.971" fill="#f04438" d="M 511.5,222.5 C 511.5,227.167 511.5,231.833 511.5,236.5C 486.759,262.743 461.425,288.576 435.5,314C 424.912,318.752 415.745,316.919 408,308.5C 404.667,301.167 404.667,293.833 408,286.5C 420.5,274 433,261.5 445.5,249C 400.167,248.667 354.833,248.333 309.5,248C 295.955,241.221 292.789,231.055 300,217.5C 303.649,212.758 308.482,210.258 314.5,210C 357.833,209.667 401.167,209.333 444.5,209C 432.667,197.167 420.833,185.333 409,173.5C 401.042,156.082 406.376,145.415 425,141.5C 430.019,142.094 434.519,143.927 438.5,147C 461,169.5 483.5,192 506,214.5C 508.087,217.07 509.92,219.737 511.5,222.5 Z"/></g>
</svg>
